<svg width="361" height="15" viewBox="0 0 361 15" fill="none" xmlns="http://www.w3.org/2000/svg">
<g opacity="0.5">
<line x1="0.5" y1="-2.18557e-08" x2="0.500001" y2="15" stroke="#858DAD"/>
<line x1="8.5" y1="-2.18557e-08" x2="8.5" y2="15" stroke="#858DAD"/>
<line x1="16.5" y1="-2.18557e-08" x2="16.5" y2="15" stroke="#858DAD"/>
<line x1="24.5" y1="-2.18557e-08" x2="24.5" y2="15" stroke="#858DAD"/>
<line x1="32.5" y1="-2.18557e-08" x2="32.5" y2="15" stroke="#858DAD"/>
<line x1="40.5" y1="-2.18557e-08" x2="40.5" y2="15" stroke="#858DAD"/>
<line x1="48.5" y1="-2.18557e-08" x2="48.5" y2="15" stroke="#858DAD"/>
<line x1="56.5" y1="-2.18557e-08" x2="56.5" y2="15" stroke="#858DAD"/>
<line x1="64.5" y1="-2.18557e-08" x2="64.5" y2="15" stroke="#858DAD"/>
<line x1="72.5" y1="-2.18557e-08" x2="72.5" y2="15" stroke="#858DAD"/>
<line x1="80.5" y1="-2.18557e-08" x2="80.5" y2="15" stroke="#858DAD"/>
<line x1="88.5" y1="-2.18557e-08" x2="88.5" y2="15" stroke="#858DAD"/>
<line x1="96.5" y1="-2.18557e-08" x2="96.5" y2="15" stroke="#858DAD"/>
<line x1="104.5" y1="-2.18557e-08" x2="104.5" y2="15" stroke="#858DAD"/>
<line x1="112.5" y1="-2.18557e-08" x2="112.5" y2="15" stroke="#858DAD"/>
<line x1="120.5" y1="-2.18557e-08" x2="120.5" y2="15" stroke="#858DAD"/>
<line x1="128.5" y1="-2.18557e-08" x2="128.5" y2="15" stroke="#858DAD"/>
<line x1="136.5" y1="-2.18557e-08" x2="136.5" y2="15" stroke="#858DAD"/>
<line x1="144.5" y1="-2.18557e-08" x2="144.5" y2="15" stroke="#858DAD"/>
<line x1="152.5" y1="-2.18557e-08" x2="152.5" y2="15" stroke="#858DAD"/>
<line x1="160.5" y1="-2.18557e-08" x2="160.5" y2="15" stroke="#858DAD"/>
<line x1="168.5" y1="-2.18557e-08" x2="168.5" y2="15" stroke="#858DAD"/>
<line x1="176.5" y1="-2.18557e-08" x2="176.5" y2="15" stroke="#858DAD"/>
<line x1="184.5" y1="-2.18557e-08" x2="184.5" y2="15" stroke="#858DAD"/>
<line x1="192.5" y1="-2.18557e-08" x2="192.5" y2="15" stroke="#858DAD"/>
<line x1="200.5" y1="-2.18557e-08" x2="200.5" y2="15" stroke="#858DAD"/>
<line x1="208.5" y1="-2.18557e-08" x2="208.5" y2="15" stroke="#858DAD"/>
<line x1="216.5" y1="-2.18557e-08" x2="216.5" y2="15" stroke="#858DAD"/>
<line x1="224.5" y1="-2.18557e-08" x2="224.5" y2="15" stroke="#858DAD"/>
<line x1="232.5" y1="-2.18557e-08" x2="232.5" y2="15" stroke="#858DAD"/>
<line x1="240.5" y1="-2.18557e-08" x2="240.5" y2="15" stroke="#858DAD"/>
<line x1="248.5" y1="-2.18557e-08" x2="248.5" y2="15" stroke="#858DAD"/>
<line x1="256.5" y1="-2.18557e-08" x2="256.5" y2="15" stroke="#858DAD"/>
<line x1="264.5" y1="-2.18557e-08" x2="264.5" y2="15" stroke="#858DAD"/>
<line x1="272.5" y1="-2.18557e-08" x2="272.5" y2="15" stroke="#858DAD"/>
<line x1="280.5" y1="-2.18557e-08" x2="280.5" y2="15" stroke="#858DAD"/>
<line x1="288.5" y1="-2.18557e-08" x2="288.5" y2="15" stroke="#858DAD"/>
<line x1="296.5" y1="-2.18557e-08" x2="296.5" y2="15" stroke="#858DAD"/>
<line x1="304.5" y1="-2.18557e-08" x2="304.5" y2="15" stroke="#858DAD"/>
<line x1="312.5" y1="-2.18557e-08" x2="312.5" y2="15" stroke="#858DAD"/>
<line x1="320.5" y1="-2.18557e-08" x2="320.5" y2="15" stroke="#858DAD"/>
<line x1="328.5" y1="-2.18557e-08" x2="328.5" y2="15" stroke="#858DAD"/>
<line x1="336.5" y1="-2.18557e-08" x2="336.5" y2="15" stroke="#858DAD"/>
<line x1="344.5" y1="-2.18557e-08" x2="344.5" y2="15" stroke="#858DAD"/>
<line x1="352.5" y1="-2.18557e-08" x2="352.5" y2="15" stroke="#858DAD"/>
<line x1="360.5" y1="-2.18557e-08" x2="360.5" y2="15" stroke="#858DAD"/>
</g>
</svg>
