<svg width="667" height="145" viewBox="0 0 667 145" fill="none" xmlns="http://www.w3.org/2000/svg">
<line x1="0.5" y1="-2.18557e-08" x2="0.500006" y2="144.023" stroke="#23232D"/>
<line x1="33.8" y1="-2.18557e-08" x2="33.8001" y2="144.023" stroke="#23232D"/>
<line x1="67.1001" y1="-2.18557e-08" x2="67.1001" y2="144.023" stroke="#23232D"/>
<line x1="100.4" y1="-2.18557e-08" x2="100.4" y2="144.023" stroke="#23232D"/>
<line x1="133.7" y1="-2.18557e-08" x2="133.7" y2="144.023" stroke="#23232D"/>
<line x1="167" y1="-2.18557e-08" x2="167" y2="144.023" stroke="#23232D"/>
<line x1="200.3" y1="-2.18557e-08" x2="200.3" y2="144.023" stroke="#23232D"/>
<line x1="233.6" y1="-2.18557e-08" x2="233.6" y2="144.023" stroke="#23232D"/>
<line x1="266.9" y1="-2.18557e-08" x2="266.9" y2="144.023" stroke="#23232D"/>
<line x1="300.2" y1="-2.18557e-08" x2="300.2" y2="144.023" stroke="#23232D"/>
<line x1="333.5" y1="-2.18557e-08" x2="333.5" y2="144.023" stroke="#23232D"/>
<line x1="366.8" y1="-2.18557e-08" x2="366.8" y2="144.023" stroke="#23232D"/>
<line x1="400.1" y1="-2.18557e-08" x2="400.1" y2="144.023" stroke="#23232D"/>
<line x1="433.4" y1="-2.18557e-08" x2="433.4" y2="144.023" stroke="#23232D"/>
<line x1="466.7" y1="-2.18557e-08" x2="466.7" y2="144.023" stroke="#23232D"/>
<line x1="500" y1="-2.18557e-08" x2="500" y2="144.023" stroke="#23232D"/>
<line x1="533.3" y1="-2.18557e-08" x2="533.3" y2="144.023" stroke="#23232D"/>
<line x1="566.6" y1="-2.18557e-08" x2="566.6" y2="144.023" stroke="#23232D"/>
<line x1="599.9" y1="-2.18557e-08" x2="599.9" y2="144.023" stroke="#23232D"/>
<line x1="633.2" y1="-2.18557e-08" x2="633.2" y2="144.023" stroke="#23232D"/>
<line x1="666.5" y1="-2.18557e-08" x2="666.5" y2="144.023" stroke="#23232D"/>
</svg>
