<svg width="58" height="30" viewBox="0 0 58 30" fill="none" xmlns="http://www.w3.org/2000/svg">
<path d="M52.4845 0H4.75621C2.12871 0 0 2.12073 0 4.73673V25.2635C0 27.8795 2.12871 30 4.75621 30H52.4845C55.1092 30 57.2379 27.8795 57.2379 25.2635V4.73673C57.2379 2.12073 55.1092 0 52.4845 0Z" fill="url(#paint0_linear_2014_476)"/>
<path d="M27.4539 4.4856H23.5726V26.147H27.4539V4.4856Z" fill="white"/>
<path d="M34.6492 11.8008H30.7679V26.1487H34.6492V11.8008Z" fill="white"/>
<path d="M52.0431 26.147L46.2103 18.554L51.577 11.799H46.9925L41.8493 18.3527V4.4856H37.968V26.147H41.8493V18.7811L46.9925 26.147H52.0431Z" fill="white"/>
<path d="M13.6761 11.6371C12.4605 11.6351 11.2639 11.9349 10.1955 12.5092V4.4856H6.31422V18.9731C6.3115 20.4246 6.74487 21.8436 7.55438 23.0504C8.36389 24.2575 9.51409 25.1984 10.8605 25.754C12.2043 26.3095 13.687 26.4549 15.1152 26.1721C16.5462 25.889 17.8572 25.19 18.8875 24.1637C19.9178 23.1374 20.621 21.8297 20.9045 20.406C21.1879 18.9824 21.0407 17.507 20.4847 16.166C19.926 14.825 18.9829 13.679 17.77 12.8731C16.5598 12.0669 15.1343 11.6368 13.6761 11.6371ZM13.6761 22.4444C12.9893 22.4444 12.3133 22.241 11.7409 21.8594C11.1686 21.4782 10.7216 20.936 10.4572 20.3016C10.1928 19.6672 10.1246 18.9693 10.2582 18.296C10.3945 17.6223 10.727 17.0038 11.2122 16.5183C11.7001 16.0329 12.3215 15.7023 12.9974 15.5684C13.6734 15.4345 14.3739 15.5032 15.0117 15.7659C15.6467 16.0285 16.1919 16.4736 16.5762 17.0444C16.9577 17.6152 17.1622 18.2864 17.1622 18.9731C17.1622 19.8939 16.7942 20.7767 16.1428 21.4277C15.4887 22.0787 14.6028 22.4444 13.6761 22.4444Z" fill="white"/>
<path d="M17.4715 10.3125C19.3849 10.3125 20.933 8.76912 20.933 6.86549C20.933 4.96158 19.3849 3.41821 17.4715 3.41821C15.5608 3.41821 14.0127 4.96158 14.0127 6.86549C14.0127 8.76912 15.5608 10.3125 17.4715 10.3125Z" fill="url(#paint1_radial_2014_476)"/>
<defs>
<linearGradient id="paint0_linear_2014_476" x1="28.619" y1="30" x2="28.619" y2="0" gradientUnits="userSpaceOnUse">
<stop stop-color="#262626"/>
<stop offset="1"/>
</linearGradient>
<radialGradient id="paint1_radial_2014_476" cx="0" cy="0" r="1" gradientUnits="userSpaceOnUse" gradientTransform="translate(14.6587 3.23194) scale(11.3447 11.3012)">
<stop stop-color="#FF0000"/>
<stop offset="0.49" stop-color="#E83E49"/>
<stop offset="1" stop-color="#FF00FF"/>
</radialGradient>
</defs>
</svg>
