<svg width="174" height="43" viewBox="0 0 174 43" fill="none" xmlns="http://www.w3.org/2000/svg">
<g clip-path="url(#clip0_1_7366)">
<path d="M47.4764 11.1426V25.1203L53.7746 18.2253H58.0833V18.413L50.7555 26.1378L59.113 34.8207V35.0776H54.7443L47.4864 27.2935V35.0776H43.8875V11.1426H47.4864H47.4764Z" fill="#B8BCD0"/>
<path d="M63.2221 27.9357C63.542 30.4842 65.6614 32.1438 68.7505 32.1438C70.49 32.1438 72.6694 31.5017 73.6991 30.3558L76.0084 32.5883C74.2689 34.5047 71.3197 35.4629 68.6805 35.4629C63.0921 35.4629 59.4932 31.9561 59.4932 26.5231C59.4932 21.416 63.0921 17.7117 68.4306 17.7117C73.769 17.7117 77.6179 21.0308 76.9781 27.9258H63.2221V27.9357ZM73.5691 25.0018C73.3791 22.3248 71.3797 20.9122 68.5605 20.9122C65.9913 20.9122 63.8719 22.3149 63.2921 25.0018H73.5791H73.5691Z" fill="#B8BCD0"/>
<path d="M96.3225 18.2351L85.5856 42.9406H81.6668L85.2057 34.8997L78.3977 18.3043H82.5065L85.4657 26.2859L87.1352 31.0768L88.9347 26.355L92.3437 18.3141H96.3325V18.2549L96.3225 18.2351Z" fill="#B8BCD0"/>
<path d="M115.727 11.1426V35.0776H112.388L112.198 32.4006C110.848 34.5738 108.599 35.4036 106.29 35.4036C101.341 35.4036 97.6121 32.2129 97.6121 26.5922C97.6121 20.9714 101.271 17.7808 106.22 17.7808C108.279 17.7808 111.108 18.7982 112.198 20.7837V11.1426H115.737H115.727ZM101.141 26.6514C101.141 30.0298 103.52 32.1437 106.539 32.1437C109.559 32.1437 111.938 29.9705 111.938 26.6514C111.938 23.3323 109.499 21.1591 106.539 21.1591C103.58 21.1591 101.141 23.1348 101.141 26.6514Z" fill="#B8BCD0"/>
<path d="M123.824 18.2351L124.084 20.4676C125.304 18.2944 127.233 17.8499 129.093 17.8499C130.762 17.8499 132.302 18.4228 133.272 19.3217L131.662 22.384C130.822 21.6826 129.993 21.3665 128.643 21.3665C126.204 21.3665 124.084 22.8976 124.084 25.9599V35.0874H120.545V18.2351H123.824Z" fill="#B8BCD0"/>
<path d="M151.716 26.6612C151.716 31.6399 148.247 35.4035 142.909 35.4035C137.57 35.4035 134.171 31.6399 134.171 26.6612C134.171 21.6826 137.64 17.8499 142.909 17.8499C148.177 17.8499 151.716 21.6826 151.716 26.6612ZM137.71 26.6612C137.71 29.6642 139.7 32.1536 142.919 32.1536C146.138 32.1536 148.127 29.6642 148.127 26.6612C148.127 23.6583 146.008 21.1097 142.919 21.1097C139.64 21.1097 137.71 23.6583 137.71 26.6612Z" fill="#B8BCD0"/>
<path d="M155.445 42.9309V18.2353H158.784L158.974 20.9814C160.264 18.9366 162.703 17.9192 164.953 17.9192C170.031 17.9785 173.5 21.6235 173.5 26.7306C173.5 31.8376 170.221 35.542 164.953 35.542C162.893 35.542 160.264 34.7715 158.974 32.7366V43.0099H155.435V42.9507L155.445 42.9309ZM170.031 26.6516C170.031 23.4609 167.912 21.2877 164.633 21.2877C161.354 21.2877 159.294 23.6486 159.294 26.6516C159.294 29.6545 161.544 32.0154 164.633 32.0154C167.722 32.0154 170.031 29.783 170.031 26.6516Z" fill="#B8BCD0"/>
<path d="M20.5428 17.8291H16.3232V23.073H20.5428V17.8291Z" fill="#B8BCD0"/>
<path d="M20.5428 25.1707H16.3232V38.8048H20.5428V25.1707Z" fill="#B8BCD0"/>
<path d="M14.2135 23.073H5.25396C3.81579 23.073 2.60986 21.9342 2.60986 20.4511C2.60986 18.9679 3.76219 17.8291 5.25396 17.8291H14.2135V23.073Z" fill="#B8BCD0"/>
<path d="M14.2134 38.8048C9.54909 38.8048 5.77441 35.0238 5.77441 30.347V25.1707H14.2134V38.8048Z" fill="#B8BCD0"/>
<path d="M22.6526 23.073H31.6121C33.0503 23.073 34.2562 21.9342 34.2562 20.4511C34.2562 18.9679 33.1039 17.8291 31.6121 17.8291H22.6526V23.073Z" fill="#B8BCD0"/>
<path d="M22.6526 38.8048C27.3169 38.8048 31.0916 35.0238 31.0916 30.347V25.1707H22.6526V38.8048Z" fill="#B8BCD0"/>
<path d="M16.3825 15.7028L7.40351 13.1944C6.751 13.0229 6.63152 12.0845 7.16456 11.7326L13.3038 7.48267C13.7173 7.19393 14.2504 7.36537 14.425 7.83458L17.32 14.5388C17.5589 15.1795 17.0259 15.8833 16.3734 15.7028H16.3825Z" fill="#B8BCD0"/>
<path d="M19.5651 14.5436L24.6235 4.62667C24.906 4.06023 25.6476 4.06023 25.93 4.57438L30.9796 12.9663C31.2621 13.4718 30.9796 14.0905 30.4676 14.1515L20.3685 15.7288C19.7417 15.7811 19.2915 15.1101 19.574 14.5436H19.5651Z" fill="#B8BCD0"/>
<path d="M106.699 39.3748H97.6418V42.9309H106.699V39.3748Z" fill="#B8BCD0"/>
</g>
<defs>
<clipPath id="clip0_1_7366">
<rect width="173" height="43" fill="white" transform="translate(0.5)"/>
</clipPath>
</defs>
</svg>
