<svg width="129" height="30" viewBox="0 0 129 30" fill="none" xmlns="http://www.w3.org/2000/svg">
<path d="M33.8679 5.3714V16.1776L38.6222 10.847H41.8748V10.9921L36.3432 16.9641L42.652 23.6769V23.8755H39.3542L33.8754 17.8577V23.8755H31.1587V5.3714H33.8754H33.8679Z" fill="#FFCB77"/>
<path d="M45.7543 18.3528C45.9958 20.3232 47.5957 21.6061 49.9275 21.6061C51.2406 21.6061 52.8858 21.1097 53.6631 20.2239L55.4063 21.9498C54.0932 23.4314 51.867 24.1721 49.8747 24.1721C45.6562 24.1721 42.9395 21.461 42.9395 17.2608C42.9395 13.3125 45.6562 10.4487 49.686 10.4487C53.7159 10.4487 56.6213 13.0147 56.1383 18.3452H45.7543V18.3528ZM53.565 16.0847C53.4216 14.0151 51.9123 12.923 49.7842 12.923C47.8447 12.923 46.2448 14.0075 45.8071 16.0847H53.5725H53.565Z" fill="#FFCB77"/>
<path d="M70.7406 10.8541L62.6357 29.9539H59.6774L62.3489 23.7375L57.2097 10.9076H60.3113L62.5451 17.0781L63.8054 20.782L65.1638 17.1316L67.7371 10.9152H70.7482V10.8694L70.7406 10.8541Z" fill="#FFCB77"/>
<path d="M85.3887 5.3714V23.8755H82.8681L82.7247 21.8059C81.706 23.486 80.008 24.1275 78.2647 24.1275C74.5292 24.1275 71.7144 21.6608 71.7144 17.3154C71.7144 12.9701 74.4764 10.5034 78.2119 10.5034C79.7665 10.5034 81.9022 11.29 82.7247 12.825V5.3714H85.3962H85.3887ZM74.3783 17.3613C74.3783 19.9731 76.1744 21.6074 78.4534 21.6074C80.7325 21.6074 82.5285 19.9273 82.5285 17.3613C82.5285 14.7953 80.6872 13.1152 78.4534 13.1152C76.2196 13.1152 74.3783 14.6425 74.3783 17.3613Z" fill="white"/>
<path d="M91.5006 10.8543L91.6969 12.5803C92.6175 10.9001 94.074 10.5565 95.4777 10.5565C96.7379 10.5565 97.9001 10.9994 98.6321 11.6944L97.4171 14.0618C96.7832 13.5196 96.1568 13.2752 95.1381 13.2752C93.2967 13.2752 91.6969 14.4589 91.6969 16.8263V23.8828H89.0254V10.8543H91.5006Z" fill="white"/>
<path d="M112.556 17.3685C112.556 21.2174 109.938 24.1271 105.908 24.1271C101.878 24.1271 99.3123 21.2174 99.3123 17.3685C99.3123 13.5195 101.931 10.5564 105.908 10.5564C109.885 10.5564 112.556 13.5195 112.556 17.3685ZM101.984 17.3685C101.984 19.6901 103.485 21.6145 105.915 21.6145C108.345 21.6145 109.847 19.6901 109.847 17.3685C109.847 15.0469 108.247 13.0765 105.915 13.0765C103.44 13.0765 101.984 15.0469 101.984 17.3685Z" fill="white"/>
<path d="M115.371 29.9466V10.8544H117.891L118.035 12.9775C119.008 11.3966 120.849 10.61 122.547 10.61C126.381 10.6559 129 13.4739 129 17.4221C129 21.3704 126.524 24.2342 122.547 24.2342C120.993 24.2342 119.008 23.6385 118.035 22.0653V30.0077H115.363V29.9618L115.371 29.9466ZM126.381 17.361C126.381 14.8943 124.781 13.2142 122.306 13.2142C119.831 13.2142 118.276 15.0394 118.276 17.361C118.276 19.6826 119.974 21.5078 122.306 21.5078C124.638 21.5078 126.381 19.7819 126.381 17.361Z" fill="white"/>
<path d="M13.537 10.5405H10.3518V14.5946H13.537V10.5405Z" fill="#FFCB77"/>
<path d="M13.537 16.2162H10.3518V26.7568H13.537V16.2162Z" fill="#FFCB77"/>
<path d="M8.75926 14.5946H1.99595C0.910316 14.5946 0 13.7142 0 12.5676C0 11.421 0.869857 10.5405 1.99595 10.5405H8.75926V14.5946Z" fill="#FFCB77"/>
<path d="M8.75929 26.7568C5.2383 26.7568 2.38892 23.8336 2.38892 20.218V16.2162H8.75929V26.7568Z" fill="#FFCB77"/>
<path d="M15.1296 14.5946H21.8929C22.9786 14.5946 23.8889 13.7142 23.8889 12.5676C23.8889 11.421 23.019 10.5405 21.8929 10.5405H15.1296V14.5946Z" fill="#FFCB77"/>
<path d="M15.1296 26.7568C18.6506 26.7568 21.5 23.8336 21.5 20.218V16.2162H15.1296V26.7568Z" fill="#FFCB77"/>
<path d="M10.3962 8.89684L3.61824 6.95755C3.12567 6.82501 3.03548 6.09953 3.43786 5.82747L8.07215 2.54184C8.38435 2.31862 8.78672 2.45116 8.91854 2.8139L11.1039 7.99695C11.2842 8.49224 10.8819 9.03636 10.3893 8.89684H10.3962Z" fill="#FFCB77"/>
<path d="M12.7991 8.00045L16.6175 0.333668C16.8308 -0.104241 17.3905 -0.104241 17.6038 0.293246L21.4155 6.78104C21.6288 7.1718 21.4155 7.65013 21.029 7.69729L13.4055 8.9167C12.9324 8.95712 12.5925 8.43836 12.8058 8.00045H12.7991Z" fill="#FFCB77"/>
</svg>
