<svg width="115" height="20" viewBox="0 0 115 20" fill="none" xmlns="http://www.w3.org/2000/svg">
<path fill-rule="evenodd" clip-rule="evenodd" d="M49.5531 13.3646V9.19863C49.5531 7.62668 48.5506 6.56852 46.9369 6.55464C46.0021 6.49409 45.1056 6.94845 44.6012 7.73777C44.1416 6.97179 43.297 6.51686 42.4044 6.55464C41.6281 6.51714 40.8871 6.89375 40.4603 7.54336V6.71016H39.0133V13.3646H40.4742V9.6791C40.4742 8.52375 41.1129 7.91274 42.1016 7.91274C43.0904 7.91274 43.5486 8.53763 43.5486 9.66522V13.3646H45.0012V9.6791C45.0012 8.52375 45.6677 7.91274 46.6286 7.91274C47.5896 7.91274 48.0895 8.53763 48.0895 9.66522V13.3646H49.5531ZM71.169 6.71572H68.8055V4.69939H67.3447V6.71572H65.9949V8.03771H67.3447V11.0678C67.3447 12.6119 67.9418 13.5312 69.6526 13.5312C70.2916 13.5332 70.9182 13.3551 71.4606 13.0174L71.044 11.7788C70.6558 12.0101 70.2153 12.139 69.7637 12.1537C69.0416 12.1537 68.8027 11.7093 68.8027 11.0428V8.03771H71.1662L71.169 6.71572ZM83.5085 6.54907C82.7909 6.52824 82.1168 6.90317 81.7561 7.5239V6.7157H80.323V13.3646H81.77V9.63743C81.77 8.5265 82.2421 7.9266 83.1891 7.9266C83.4991 7.92216 83.8065 7.97881 84.0946 8.09325L84.5389 6.72958C84.2082 6.61127 83.8599 6.55017 83.5085 6.54906V6.54907ZM64.8533 7.2434C64.0343 6.75681 63.0922 6.51575 62.1399 6.54907C60.4569 6.54907 59.3626 7.35726 59.3626 8.67649C59.3626 9.76241 60.168 10.429 61.6566 10.6373L62.3371 10.7345C63.1286 10.8456 63.5063 11.0539 63.5063 11.4288C63.5063 11.9426 62.9786 12.237 61.9899 12.237C61.1923 12.2623 60.4093 12.0176 59.7681 11.5427L59.1099 12.6675C59.9522 13.2565 60.9623 13.5595 61.9899 13.5312C63.909 13.5312 65.0227 12.6258 65.0227 11.3621C65.0227 10.1929 64.1451 9.5819 62.7009 9.37359L62.0205 9.27639C61.3956 9.19307 60.8929 9.06809 60.8929 8.62373C60.8929 8.1377 61.365 7.84608 62.1593 7.84608C62.887 7.85691 63.6002 8.05271 64.2312 8.41543L64.8533 7.2434ZM103.602 6.54907C102.885 6.52824 102.211 6.90317 101.85 7.5239V6.7157H100.417V13.3646H101.864V9.63743C101.864 8.5265 102.336 7.9266 103.283 7.9266C103.593 7.92216 103.9 7.97881 104.188 8.09325L104.633 6.72958C104.302 6.61127 103.954 6.55017 103.602 6.54906V6.54907ZM84.9693 10.0402C84.9693 12.0565 86.3746 13.5312 88.5159 13.5312C89.3839 13.5743 90.2373 13.2907 90.9072 12.7369L90.2129 11.5677C89.7127 11.9484 89.1028 12.1581 88.4743 12.1648C87.3189 12.1648 86.4719 11.3149 86.4719 10.0374C86.4719 8.75982 87.3217 7.92385 88.4743 7.90996C89.1028 7.91662 89.7127 8.12631 90.2129 8.50708L90.9072 7.33783C90.2373 6.78404 89.3839 6.50048 88.5159 6.54352C86.3746 6.54352 84.9693 8.01827 84.9693 10.0346V10.0402ZM98.517 13.3535V6.70738H97.0701V7.51558C96.5699 6.87014 95.7861 6.50632 94.9704 6.54075C93.1068 6.54075 91.6377 8.00161 91.6377 10.0318C91.6377 12.062 93.0985 13.5229 94.9704 13.5229C95.7861 13.5573 96.5699 13.1935 97.0701 12.5481V13.3535L98.517 13.3535ZM93.1346 10.0402C93.1346 8.8709 93.8984 7.91273 95.1509 7.91273C96.348 7.91273 97.1534 8.83202 97.1534 10.0402C97.1534 11.2483 96.348 12.1676 95.1509 12.1676C93.8984 12.1676 93.1346 11.2066 93.1346 10.0402ZM75.6764 6.54908C73.7323 6.54908 72.3658 7.96829 72.3658 10.0402C72.3658 12.1537 73.785 13.5312 75.7736 13.5312C76.7662 13.5659 77.7377 13.2335 78.5009 12.5981L77.7927 11.526C77.2406 11.9679 76.5557 12.2123 75.8486 12.2203C74.9154 12.2203 74.0683 11.7899 73.86 10.5928H78.7981C78.812 10.4123 78.8259 10.2318 78.8259 10.0374C78.8259 7.96551 77.5316 6.54631 75.6681 6.54631L75.6764 6.54908ZM75.6487 7.8433C76.5819 7.8433 77.179 8.42653 77.3318 9.45691H73.8851C74.0379 8.49597 74.6211 7.8433 75.6515 7.8433H75.6487ZM111.934 13.359V4.04395H110.487V7.52113C109.987 6.87569 109.203 6.51186 108.388 6.5463C106.524 6.5463 105.055 8.00716 105.055 10.0374C105.055 12.0676 106.516 13.5284 108.388 13.5284C109.203 13.5629 109.987 13.1991 110.487 12.5536V13.359L111.934 13.359ZM113.626 12.7508C113.683 12.7505 113.739 12.7619 113.792 12.7841C113.843 12.8058 113.889 12.8369 113.928 12.8758C113.967 12.9138 113.998 12.9591 114.02 13.0091C114.065 13.1135 114.065 13.2324 114.02 13.3368C113.998 13.3868 113.967 13.4318 113.928 13.4701C113.889 13.5087 113.843 13.5398 113.792 13.5618C113.739 13.5843 113.683 13.5956 113.626 13.5951C113.453 13.5973 113.295 13.4951 113.226 13.3368C113.181 13.2321 113.181 13.1138 113.226 13.0091C113.269 12.9071 113.351 12.8263 113.453 12.7841C113.51 12.7608 113.57 12.7494 113.631 12.7508H113.626ZM113.626 13.5007C113.669 13.5012 113.713 13.4929 113.753 13.4757C113.792 13.459 113.826 13.4357 113.856 13.4062C113.984 13.2782 113.984 13.0677 113.856 12.9397C113.827 12.9102 113.792 12.8866 113.753 12.8702C113.713 12.8533 113.669 12.8447 113.626 12.8452C113.581 12.8447 113.536 12.853 113.495 12.8702C113.374 12.9222 113.294 13.0421 113.294 13.1741C113.294 13.261 113.328 13.3443 113.389 13.4062C113.42 13.4359 113.456 13.4596 113.495 13.4757C113.538 13.4937 113.584 13.5021 113.631 13.5007H113.626ZM113.65 12.973C113.692 12.9702 113.733 12.9819 113.767 13.0063C113.795 13.0285 113.81 13.0624 113.809 13.098C113.81 13.1282 113.798 13.1577 113.775 13.1785C113.75 13.2013 113.718 13.2149 113.684 13.2174L113.812 13.3646H113.712L113.592 13.2174H113.553V13.3646H113.47V12.9758L113.65 12.973ZM113.553 13.0452V13.1507H113.651C113.668 13.1557 113.686 13.1557 113.703 13.1507C113.716 13.1421 113.724 13.1274 113.723 13.1118C113.724 13.0963 113.716 13.0816 113.703 13.073C113.686 13.068 113.668 13.068 113.651 13.073L113.553 13.0452ZM106.557 10.0402C106.557 8.8709 107.321 7.91273 108.574 7.91273C109.771 7.91273 110.576 8.83202 110.576 10.0402C110.576 11.2483 109.771 12.1676 108.574 12.1676C107.321 12.1676 106.557 11.2066 106.557 10.0402ZM57.7045 10.0401V6.70738H56.2575V7.51558C55.7573 6.8757 54.9778 6.51547 54.1662 6.54908C52.3027 6.54908 50.8335 8.00994 50.8335 10.0402C50.8335 12.0704 52.2943 13.5312 54.1662 13.5312C54.9819 13.5657 55.7657 13.2018 56.2659 12.5564V13.3618H57.7129L57.7045 10.0401ZM52.3221 10.0402C52.3221 8.8709 53.0859 7.91273 54.3385 7.91273C55.5355 7.91273 56.3409 8.83202 56.3409 10.0402C56.3409 11.2483 55.5355 12.1676 54.3385 12.1676C53.0859 12.1676 52.3221 11.2094 52.3221 10.0402Z" fill="white"/>
<rect x="11.8015" y="2.13574" width="8.7485" height="15.7223" fill="#FF5F00"/>
<path d="M12.3576 10.0003C12.3551 6.93501 13.7652 4.03328 16.1764 2.14055C14.415 0.756344 12.2385 0.00341797 9.99829 0.00341797C4.5134 0.00341797 0 4.51682 0 10.0017C0 15.4866 4.5134 20 9.99829 20C12.2385 20 14.415 19.2471 16.1764 17.8629C13.7643 15.9696 12.3543 13.0667 12.3576 10.0003Z" fill="#EB001B"/>
<path d="M32.3541 10.0008C32.3541 15.4857 27.8407 19.9988 22.3558 19.9988C20.115 19.9988 17.9379 19.2456 16.1763 17.8606C18.5867 15.9662 19.9964 13.065 19.9964 9.9994C19.9964 6.93381 18.5867 4.03264 16.1763 2.13825C17.9379 0.753206 20.115 0 22.3558 0C27.8407 0 32.3541 4.5134 32.3541 9.99829C32.3541 9.99912 32.3541 9.99995 32.3541 10.0008Z" fill="#F79E1B"/>
</svg>
