<svg width="87" height="20" viewBox="0 0 87 20" fill="none" xmlns="http://www.w3.org/2000/svg">
<path d="M32.2613 4.47192H27.4866C27.1599 4.47192 26.882 4.69726 26.831 5.00345L24.8999 16.6261C24.8615 16.8554 25.0486 17.0622 25.2937 17.0622H27.5732C27.8999 17.0622 28.1778 16.8369 28.2287 16.53L28.7496 13.3952C28.7998 13.0884 29.0784 12.863 29.4045 12.863H30.916C34.0612 12.863 35.8764 11.4182 36.3505 8.55514C36.5641 7.30254 36.3595 6.31835 35.7417 5.62909C35.0631 4.87223 33.8594 4.47192 32.2613 4.47192ZM32.8122 8.71685C32.5511 10.3432 31.242 10.3432 29.9762 10.3432H29.2557L29.7612 7.30585C29.7912 7.12227 29.9588 6.98707 30.1543 6.98707H30.4845C31.3467 6.98707 32.1601 6.98707 32.5804 7.45364C32.831 7.732 32.9078 8.14556 32.8122 8.71685Z" fill="#253B80"/>
<path d="M46.5343 8.66482H44.2479C44.0531 8.66482 43.8848 8.80002 43.8548 8.9836L43.7536 9.59069L43.5937 9.37065C43.0987 8.68868 41.9949 8.46069 40.8932 8.46069C38.3666 8.46069 36.2085 10.2773 35.7882 12.8256C35.5697 14.0967 35.8804 15.3122 36.64 16.1599C37.3368 16.9393 38.3337 17.264 39.5199 17.264C41.5558 17.264 42.6847 16.0214 42.6847 16.0214L42.5827 16.6245C42.5444 16.8551 42.7315 17.0619 42.9751 17.0619H45.0347C45.3621 17.0619 45.6386 16.8366 45.6903 16.5297L46.926 9.10091C46.9651 8.87226 46.7787 8.66482 46.5343 8.66482ZM43.3472 12.8892C43.1266 14.1292 42.0898 14.9616 40.7675 14.9616C40.1036 14.9616 39.573 14.7595 39.2323 14.3764C38.8944 13.996 38.7659 13.4545 38.8734 12.8514C39.0794 11.622 40.1336 10.7624 41.4357 10.7624C42.085 10.7624 42.6128 10.9672 42.9605 11.3536C43.3088 11.744 43.4471 12.2887 43.3472 12.8892Z" fill="#253B80"/>
<path d="M58.713 8.66504H56.4154C56.1962 8.66504 55.9902 8.76843 55.8659 8.94141L52.697 13.3726L51.3537 9.11439C51.2692 8.84796 51.0102 8.66504 50.717 8.66504H48.4591C48.1848 8.66504 47.9942 8.91954 48.0814 9.16475L50.6123 16.2151L48.2329 19.4036C48.0458 19.6548 48.2343 20.0001 48.5576 20.0001H50.8524C51.0703 20.0001 51.2741 19.8993 51.3977 19.7297L59.0398 9.2582C59.2227 9.00768 59.0349 8.66504 58.713 8.66504Z" fill="#253B80"/>
<path d="M66.3214 4.47192H61.546C61.2199 4.47192 60.942 4.69726 60.8911 5.00345L58.96 16.6261C58.9216 16.8554 59.1087 17.0622 59.3523 17.0622H61.8029C62.0305 17.0622 62.2253 16.9045 62.2609 16.6898L62.8089 13.3952C62.8592 13.0884 63.1378 12.863 63.4638 12.863H64.9746C68.1206 12.863 69.9351 11.4182 70.4098 8.55514C70.6242 7.30254 70.4182 6.31835 69.8003 5.62909C69.1224 4.87223 67.9195 4.47192 66.3214 4.47192ZM66.8722 8.71685C66.6118 10.3432 65.3028 10.3432 64.0363 10.3432H63.3165L63.8227 7.30585C63.8527 7.12227 64.0188 6.98707 64.215 6.98707H64.5453C65.4068 6.98707 66.2208 6.98707 66.6411 7.45364C66.8918 7.732 66.9679 8.14556 66.8722 8.71685Z" fill="#179BD7"/>
<path d="M80.5919 8.66482H78.3068C78.1106 8.66482 77.9438 8.80002 77.9145 8.9836L77.8132 9.59069L77.6527 9.37065C77.1577 8.68868 76.0546 8.46069 74.9529 8.46069C72.4262 8.46069 70.2689 10.2773 69.8486 12.8256C69.6308 14.0967 69.9401 15.3122 70.6997 16.1599C71.3978 16.9393 72.3934 17.264 73.5796 17.264C75.6154 17.264 76.7443 16.0214 76.7443 16.0214L76.6424 16.6245C76.604 16.8551 76.7911 17.0619 77.0362 17.0619H79.0951C79.4211 17.0619 79.699 16.8366 79.7499 16.5297L80.9864 9.10091C81.0241 8.87226 80.837 8.66482 80.5919 8.66482ZM77.4048 12.8892C77.1856 14.1292 76.1474 14.9616 74.8251 14.9616C74.1625 14.9616 73.6305 14.7595 73.2898 14.3764C72.9519 13.996 72.8249 13.4545 72.931 12.8514C73.1383 11.622 74.1912 10.7624 75.4932 10.7624C76.1425 10.7624 76.6703 10.9672 77.018 11.3536C77.3678 11.744 77.506 12.2887 77.4048 12.8892Z" fill="#179BD7"/>
<path d="M83.2884 4.79088L81.3286 16.6263C81.2902 16.8556 81.4773 17.0624 81.721 17.0624H83.6912C84.0186 17.0624 84.2965 16.8371 84.3468 16.5302L86.2793 4.90819C86.3177 4.67888 86.1306 4.47144 85.8869 4.47144H83.6807C83.486 4.4721 83.3184 4.6073 83.2884 4.79088Z" fill="#179BD7"/>
<path d="M5.07355 19.3214L5.43869 17.1198L4.62533 17.1019H0.741455L3.44055 0.85584C3.44893 0.806797 3.47615 0.761067 3.51595 0.728592C3.55574 0.696117 3.60671 0.678223 3.65977 0.678223H10.2085C12.3826 0.678223 13.8829 1.10769 14.6663 1.95535C15.0335 2.353 15.2674 2.76854 15.3805 3.22584C15.4992 3.70567 15.5013 4.27895 15.3854 4.97816L15.377 5.02919V5.47721L15.7442 5.67471C16.0535 5.83046 16.2993 6.00874 16.4878 6.21287C16.802 6.55286 17.0051 6.98497 17.091 7.49728C17.1797 8.02417 17.1503 8.65113 17.0051 9.36094C16.8376 10.1774 16.5667 10.8886 16.2008 11.4705C15.8643 12.0066 15.4357 12.4514 14.9267 12.796C14.4408 13.1234 13.8634 13.3719 13.2106 13.531C12.5781 13.6874 11.8569 13.7663 11.0659 13.7663H10.5562C10.1918 13.7663 9.8378 13.8908 9.55993 14.1142C9.28137 14.3422 9.09705 14.6537 9.0405 14.9943L9.0021 15.1925L8.357 19.0729L8.32768 19.2154C8.32 19.2605 8.30673 19.283 8.28719 19.2982C8.26973 19.3122 8.2446 19.3214 8.22016 19.3214H5.07355Z" fill="#253B80"/>
<path d="M16.0913 5.0813C16.0718 5.19993 16.0494 5.32122 16.0243 5.44581C15.1607 9.65495 12.2061 11.109 8.4325 11.109H6.51116C6.04967 11.109 5.66079 11.4271 5.58888 11.8593L4.60517 17.7816L4.32661 19.4604C4.27983 19.744 4.51022 19.9998 4.81183 19.9998H8.21956C8.62309 19.9998 8.96589 19.7215 9.02942 19.3437L9.06294 19.1794L9.70455 15.3142L9.74574 15.1021C9.80857 14.723 10.1521 14.4447 10.5556 14.4447H11.0653C14.3669 14.4447 16.9515 13.1722 17.7069 9.48993C18.0224 7.95168 17.8591 6.66726 17.0241 5.76393C16.7713 5.49154 16.4579 5.26554 16.0913 5.0813Z" fill="#179BD7"/>
<path d="M15.1883 4.7386C15.0563 4.70215 14.9202 4.66901 14.7805 4.63919C14.6402 4.61002 14.4964 4.58418 14.3484 4.56164C13.8303 4.48211 13.2627 4.44434 12.6546 4.44434H7.52174C7.39538 4.44434 7.27529 4.47151 7.16778 4.52055C6.9311 4.62858 6.75516 4.84132 6.71258 5.10179L5.62065 11.667L5.58923 11.8585C5.66114 11.4264 6.05002 11.1083 6.51151 11.1083H8.43285C12.2064 11.1083 15.161 9.65356 16.0247 5.44509C16.0505 5.32049 16.0721 5.19921 16.0917 5.08058C15.8732 4.97056 15.6365 4.87645 15.3817 4.79626C15.3188 4.77637 15.2539 4.75715 15.1883 4.7386Z" fill="#222D65"/>
<path d="M6.71212 5.10253C6.75471 4.84207 6.93064 4.62932 7.16732 4.52196C7.27553 4.47291 7.39492 4.44574 7.52129 4.44574H12.6542C13.2623 4.44574 13.8299 4.48352 14.3479 4.56305C14.4959 4.58558 14.6397 4.61143 14.7801 4.64059C14.9197 4.67041 15.0558 4.70355 15.1878 4.74C15.2534 4.75856 15.3184 4.77778 15.3819 4.797C15.6367 4.87719 15.8734 4.97196 16.0919 5.08132C16.3488 3.52584 16.0898 2.46676 15.2039 1.50776C14.2271 0.451997 12.4643 0 10.2085 0H3.65976C3.19897 0 2.8059 0.318121 2.73469 0.750898L0.00697381 17.1639C-0.0467846 17.4887 0.21712 17.7816 0.562012 17.7816H4.60507L5.62019 11.6677L6.71212 5.10253Z" fill="#253B80"/>
</svg>
