<svg width="366" height="120" viewBox="0 0 366 120" fill="none" xmlns="http://www.w3.org/2000/svg">
<rect x="0.5" y="0.5" width="365" height="119" rx="5.5" fill="#321B5E" stroke="#6536BB"/>
<mask id="mask0_1_7220" style="mask-type:alpha" maskUnits="userSpaceOnUse" x="0" y="0" width="366" height="120">
<rect x="0.5" y="0.5" width="365" height="119" rx="5.5" fill="#18331F" stroke="#30663F"/>
</mask>
<g mask="url(#mask0_1_7220)">
<g opacity="0.05">
<path d="M12.9616 79.5051L23.9281 82.4435C29.9596 84.0597 35.102 88.0056 38.2241 93.4133C41.3462 98.8209 42.1923 105.247 40.5762 111.279L5.19516 101.799L3.84608 106.854L44.2757 117.687L45.6299 112.633C47.0548 107.251 46.9107 101.574 45.2147 96.2721L59.7997 100.18C64.5771 101.459 68.8942 104.066 72.2504 107.698C75.6065 111.331 77.8642 115.84 78.7616 120.704C62.5833 133.274 40.4865 138.338 18.6444 132.485C4.69108 128.746 -6.3306 122.597 -14.5311 114.794L-1.93223 67.774C3.98019 70.3022 9.11859 74.3495 12.9616 79.5051ZM-19.077 111.544C-19.4362 112.885 -20.313 114.028 -21.5147 114.721C-22.7164 115.415 -24.1445 115.603 -25.4849 115.244L-35.5923 112.536C-36.9326 112.177 -38.0754 111.3 -38.7692 110.098C-39.463 108.896 -39.651 107.468 -39.2919 106.128L-27.1046 60.6445C-26.7455 59.3042 -25.8686 58.1614 -24.6669 57.4676C-23.4652 56.7738 -22.0371 56.5858 -20.6968 56.945L-10.5894 59.6532C-9.24904 60.0124 -8.10628 60.8892 -7.41247 62.0909C-6.71867 63.2927 -6.53065 64.7207 -6.88979 66.0611L-19.077 111.544Z" fill="#C0A3F5"/>
<path d="M57.3654 18.2979C60.3507 19.0967 63.0853 20.6378 65.3146 22.7775C67.5438 24.9172 69.1953 27.5861 70.1151 30.5355C71.035 33.4849 71.1932 36.6189 70.5752 39.6456C69.9572 42.6724 68.583 45.4934 66.5806 47.846L83.4462 52.3597C84.7865 52.7189 85.9293 53.5956 86.6232 54.7969C87.3171 55.9983 87.5052 57.426 87.1462 58.7658L83.0852 73.9218C82.7262 75.2617 81.8494 76.404 80.6478 77.0975C79.4462 77.7909 78.0181 77.9788 76.6778 77.6196L-14.2889 53.2452C-15.6293 52.886 -16.7721 52.0093 -17.466 50.808C-18.1599 49.6066 -18.348 48.1789 -17.989 46.839L-13.9279 31.6831C-13.5689 30.3432 -12.6922 29.2009 -11.4906 28.5074C-10.2889 27.814 -8.86089 27.6261 -7.52056 27.9853L9.34231 32.5091C8.55494 28.2461 9.30631 23.8424 11.4626 20.0819C13.619 16.3214 17.0403 13.4482 21.1177 11.9736C25.195 10.4991 29.6637 10.519 33.7282 12.0297C37.7928 13.5405 41.1895 16.4441 43.3135 20.2236C45.4076 18.979 47.7302 18.1673 50.144 17.8365C52.5577 17.5058 55.0133 17.6627 57.3654 18.2979ZM29.3896 21.6312C27.4425 21.1105 25.3699 21.3586 23.6011 22.3241C21.8323 23.2896 20.503 24.8984 19.8886 26.8172C19.2742 28.7359 19.4218 30.8176 20.3008 32.6308C21.1798 34.4441 22.7229 35.8498 24.6103 36.5568L25.3285 36.7872L32.9091 38.8184L34.9396 31.2404C35.4443 29.3566 35.229 27.3522 34.3357 25.6183C33.4424 23.8843 31.9351 22.545 30.1078 21.8616L29.3896 21.6312ZM54.6581 28.4019L53.9209 28.2423C52.1242 27.9407 50.2786 28.2733 48.7006 29.1833C47.1227 30.0932 45.9106 31.5236 45.2723 33.2293L45.047 33.9487L43.0165 41.5266L50.5971 43.5578L51.3343 43.7175C53.258 44.0382 55.2322 43.6313 56.872 42.5762C58.5118 41.5211 59.6998 39.8933 60.2044 38.0101C60.709 36.1269 60.4941 34.1232 59.6015 32.3895C58.709 30.6558 57.2027 29.3164 55.3764 28.6323L54.6581 28.4019Z" fill="#C0A3F5"/>
</g>
<g filter="url(#filter0_f_1_7220)">
<circle cx="174.5" cy="203.5" r="97.5" fill="#A075F0"/>
</g>
</g>
<defs>
<filter id="filter0_f_1_7220" x="-123" y="-94" width="595" height="595" filterUnits="userSpaceOnUse" color-interpolation-filters="sRGB">
<feFlood flood-opacity="0" result="BackgroundImageFix"/>
<feBlend mode="normal" in="SourceGraphic" in2="BackgroundImageFix" result="shape"/>
<feGaussianBlur stdDeviation="100" result="effect1_foregroundBlur_1_7220"/>
</filter>
</defs>
</svg>
