<svg width="113" height="20" viewBox="0 0 113 20" fill="none" xmlns="http://www.w3.org/2000/svg">
<path d="M31.1267 0.299072H19.7835C17.9949 0.299072 16.2566 0.299072 14.701 1.07253C13.1443 1.84717 11.7702 3.39643 10.7114 6.49261C10.4837 7.15797 10.3621 7.73283 10.3453 8.22931C10.3293 8.7303 10.4185 9.15517 10.611 9.52378C10.8498 9.97289 11.235 10.3978 11.7182 10.7541C12.2003 11.1116 12.7793 11.4019 13.4013 11.5884C13.4248 11.5939 13.7526 11.6866 14.149 11.7968C14.5445 11.9082 15.0074 12.0417 15.2993 12.128C15.4704 12.1797 15.6585 12.246 15.8299 12.3463C16.001 12.4468 16.1542 12.5792 16.2511 12.7634C16.3141 12.8871 16.348 13.0206 16.3513 13.1641C16.3559 13.3087 16.3311 13.4643 16.2725 13.6285C16.1282 14.0489 15.9076 14.3204 15.4885 14.486C15.0706 14.6514 14.4534 14.7045 13.5184 14.7109H1.84625L0 19.6776H12.4944C13.6703 19.6776 15.8197 19.6776 17.8868 18.8182C19.9525 17.9586 21.9329 16.2392 22.772 12.8021C23.0875 11.51 22.9905 10.4563 22.4737 9.62978C21.9543 8.80317 21.0172 8.20419 19.6517 7.82008C19.6517 7.82008 19.3466 7.73283 18.986 7.63258C18.6289 7.53108 18.2156 7.41509 18.0038 7.35559C17.6547 7.25834 17.3855 7.05972 17.2265 6.80823C17.0689 6.55661 17.0217 6.24987 17.1117 5.9375C17.2051 5.61313 17.4317 5.35389 17.7593 5.17514C18.0882 4.99752 18.5198 4.89928 19.0233 4.89928H26.2854C26.3371 4.82753 26.3845 4.74928 26.4352 4.67528C27.7609 2.83802 29.3673 1.34951 31.1267 0.299072Z" fill="#F48120"/>
<path d="M31.1331 0.2771H19.7899C18.001 0.2771 16.264 0.277099 14.7074 1.05057C13.1507 1.8252 11.7776 3.37348 10.7185 6.47086C10.49 7.13622 10.3682 7.70996 10.3525 8.20757C10.3367 8.70743 10.4256 9.1323 10.6184 9.50091C10.856 9.9509 11.2412 10.3759 11.7244 10.7321C12.2077 11.0887 12.7857 11.3799 13.4085 11.5655C13.4322 11.572 13.76 11.6636 14.1565 11.7751C14.5506 11.8865 15.0137 12.0188 15.3065 12.105C15.4766 12.1578 15.666 12.2242 15.8371 12.3233C16.0071 12.424 16.1603 12.5572 16.2572 12.7417C16.3204 12.8641 16.3541 12.9977 16.3574 13.1422C16.362 13.2867 16.3373 13.4423 16.2786 13.6056C16.1346 14.0272 15.9148 14.2975 15.4946 14.464C15.0768 14.6297 14.4606 14.6825 13.5257 14.6892H1.85239L0.00732422 19.6559H12.5017C13.6777 19.6559 15.8269 19.6559 17.8929 18.7962C19.9587 17.9366 21.9391 16.2175 22.7781 12.7791C23.0948 11.4882 22.9967 10.4343 22.4798 9.60778C21.9605 8.78043 21.0233 8.18107 19.6591 7.7982C19.6591 7.7982 19.3527 7.71108 18.9933 7.60958C18.6363 7.50909 18.2218 7.39322 18.0099 7.33359C17.6609 7.23659 17.3927 7.03797 17.2326 6.78523C17.0761 6.53374 17.0278 6.228 17.1179 5.91575C17.2125 5.59139 17.4378 5.33214 17.7657 5.15327C18.0946 4.97553 18.5259 4.87728 19.0294 4.87728H26.2928C26.3445 4.80453 26.3906 4.72616 26.4426 4.65329C27.7683 2.81507 29.3745 1.32753 31.1331 0.2771Z" fill="#F48120"/>
<path d="M92.8826 0.310059C93.2712 0.610138 93.6035 0.953292 93.8819 1.34401C94.5936 2.34922 94.8664 3.54329 94.7031 4.91029H98.346L92.8557 19.6932H98.3416L103.835 4.91029H110.883L112.594 0.310059H92.8826Z" fill="#F48120"/>
<path d="M87.2853 6.49162C86.6975 8.04196 85.643 8.99968 83.6367 8.99968H83.6277L82.5902 8.99756L84.3655 4.31118H85.3751C87.2213 4.31118 87.9106 4.84079 87.2853 6.49162ZM92.6102 2.21025C91.7067 0.937955 89.8706 0.313359 86.9936 0.310059H80.3331L73.1304 19.6888H79.2483L81.8687 12.8683C81.9942 13.1486 83.5398 19.6888 83.5398 19.6888H89.973C89.973 19.6888 88.8029 14.8833 87.9421 12.9423C87.7214 12.4425 87.4901 11.883 87.1819 11.4164C88.9986 10.7553 91.6322 9.33405 92.7218 6.45737C93.3929 4.68867 93.3533 3.25952 92.6102 2.21025Z" fill="#F48120"/>
<path d="M36.4549 9.89915C34.7597 14.4452 33.5284 15.5895 31.6767 15.5895H31.6733C29.8699 15.5873 29.2367 14.4694 30.9241 9.94527C32.1856 6.56786 33.818 4.40842 35.7948 4.40842H35.796C37.6737 4.41054 38.1041 5.47652 36.4549 9.89915ZM42.2719 2.11418C41.284 0.7295 39.5909 0.0255308 37.2378 0.0231934C35.6991 0.0231934 34.2031 0.36966 32.8031 1.01734C30.7979 1.94551 28.9822 3.4969 27.4987 5.55251C26.5343 6.88885 25.71 8.43581 25.0635 10.1671C23.8469 13.4322 23.8602 16.0839 25.1062 17.8294C25.8112 18.8183 27.2779 19.9979 30.2618 20H30.273C35.7082 20 39.7656 16.5097 42.3349 9.62878C43.0132 7.80696 43.9086 4.40929 42.2719 2.11418Z" fill="#F48120"/>
<path d="M63.99 0.299072H52.4296C49.1976 0.299072 46.7916 1.90112 45.6561 4.89928L40.1649 19.6776H46.1788L49.0005 12.0803L54.317 12.0848L55.8291 8.01532L50.5301 8.01195L51.3826 5.65626C51.5622 5.23464 51.9859 4.89928 52.6087 4.89928C52.9557 4.89928 56.8562 4.89928 58.877 4.90028C58.9287 4.82753 58.9749 4.74928 59.0266 4.67528C60.3526 2.83802 62.2304 1.34951 63.99 0.299072Z" fill="#F48120"/>
<path d="M69.2485 9.89915C67.5531 14.4452 66.3222 15.5895 64.4714 15.5895H64.4668C62.662 15.5873 62.0325 14.4694 63.72 9.94527C64.9795 6.56786 66.6139 4.40842 68.5875 4.40842H68.5904C70.4684 4.41054 70.899 5.47652 69.2485 9.89915ZM75.0663 2.11418C74.0779 0.7295 72.3865 0.0255308 70.0301 0.0231934C68.4925 0.0231934 66.9978 0.36966 65.5967 1.01734C63.5928 1.94551 61.7769 3.4969 60.2933 5.55251C59.3289 6.88885 58.5046 8.43581 57.8591 10.1671C56.6392 13.4322 56.6548 16.0839 57.9006 17.8294C58.6061 18.8183 60.0725 19.9979 63.0577 20H63.0678C68.5017 20 72.5601 16.5097 75.1272 9.62878C75.808 7.80696 76.7022 4.40929 75.0663 2.11418Z" fill="#F48120"/>
<path d="M92.89 0.288086C93.2776 0.588153 93.6113 0.930144 93.8892 1.32202C94.6013 2.32607 94.8728 3.52111 94.7106 4.88828H98.3535L92.863 19.6711H98.3489L103.841 4.88828H110.891L112.601 0.288086H92.89Z" fill="#F48120"/>
<path d="M87.2912 6.46961C86.7043 8.0187 85.6486 8.97655 83.6425 8.97655H83.6344L82.5971 8.97442L84.3715 4.28917H85.382C87.2279 4.28917 87.9176 4.81766 87.2912 6.46961ZM92.6156 2.18807C91.7132 0.915781 89.8776 0.291386 87.0005 0.288086H80.3399L73.1362 19.6666H79.255L81.8739 12.8463C82.0011 13.1267 83.5456 19.6666 83.5456 19.6666H89.9799C89.9799 19.6666 88.8081 14.8613 87.949 12.9192C87.7279 12.4203 87.4971 11.861 87.1886 11.3932C89.0055 10.7321 91.6382 9.31191 92.7281 6.43524C93.3986 4.66641 93.3591 3.23753 92.6156 2.18807Z" fill="#F48120"/>
<path d="M36.4611 9.87689C34.7658 14.4231 33.5346 15.5664 31.6827 15.5664H31.6792C29.876 15.5652 29.243 14.4463 30.9315 9.92214C32.1919 6.54448 33.8241 4.38516 35.8009 4.38516H35.8021C37.6811 4.38729 38.1112 5.45426 36.4611 9.87689ZM42.2791 2.09215C41.2901 0.707282 39.5982 0.00329991 37.244 0C35.704 0 34.2093 0.347616 32.8093 0.994149C30.8042 1.92327 28.9883 3.47371 27.505 5.53051C26.5418 6.86572 25.7161 8.41381 25.0706 10.144C23.8529 13.4102 23.8665 16.0617 25.1121 17.8074C25.8186 18.796 27.2852 19.9746 30.2679 19.9779H30.2793C35.7141 19.9779 39.7716 16.4877 42.3411 9.60553C43.0191 7.78382 43.9159 4.38616 42.2791 2.09215Z" fill="#F48120"/>
<path d="M63.9971 0.2771H52.4368C49.2035 0.2771 46.7976 1.87935 45.6621 4.87728L40.1708 19.6559H46.1859L49.0075 12.0586L54.323 12.062L55.8346 7.99357L50.5362 7.9902L51.3899 5.63426C51.5678 5.21177 51.9923 4.87641 52.6144 4.87641C52.9613 4.87641 56.8633 4.87728 58.8842 4.87728C58.9349 4.80566 58.9811 4.72616 59.0328 4.65329C60.3598 2.81507 62.2375 1.32753 63.9971 0.2771Z" fill="#F48120"/>
<path d="M69.2553 9.87689C67.5603 14.4231 66.3302 15.5664 64.4792 15.5664H64.4746C62.6688 15.5652 62.0393 14.4463 63.7254 9.92214C64.986 6.54448 66.6192 4.38516 68.594 4.38516H68.5975C70.4753 4.38729 70.9054 5.45426 69.2553 9.87689ZM75.0733 2.09215C74.0842 0.707282 72.3937 0.00329991 70.038 0C68.4997 0 67.0047 0.347616 65.6042 0.994149C63.5991 1.92327 61.7837 3.47371 60.3 5.53051C59.3359 6.86572 58.5126 8.41381 57.8659 10.144C56.6469 13.4102 56.6617 16.0617 57.9086 17.8074C58.6125 18.796 60.0795 19.9746 63.0655 19.9779H63.0746C68.5097 19.9779 72.568 16.4877 75.1341 9.60553C75.8155 7.78382 76.7101 4.38616 75.0733 2.09215Z" fill="#F48120"/>
</svg>
