<svg width="95" height="20" viewBox="0 0 95 20" fill="none" xmlns="http://www.w3.org/2000/svg">
<path d="M31.3884 15.8627V3.0454H26.8226V0H39.2397V3.0454H34.6739V15.8627H31.3884Z" fill="#0EE06E"/>
<path d="M38.7164 15.8635V4.35547H41.7383V6.17699C42.4538 4.63061 43.3764 4.35547 44.3648 4.35547H45.5321V7.43887H44.5437C43.1221 7.43887 41.8512 8.26426 41.8512 10.7878V15.8729H38.7164V15.8635Z" fill="#0EE06E"/>
<path d="M46.9556 11.6512V4.35547H50.0811V10.9396C50.0811 12.2868 50.7306 13.283 52.0674 13.283C53.3571 13.283 54.1761 12.2868 54.1761 10.9586V4.35547H57.3016V15.8729H54.3268V14.4214C53.5737 15.5694 52.4534 16.1387 51.0319 16.1387C48.5277 16.1292 46.9556 14.3929 46.9556 11.6512Z" fill="#0EE06E"/>
<path d="M58.6389 12.6293L61.3597 12.0031C61.4914 12.8949 62.1975 13.5685 63.5625 13.5685C64.6168 13.5685 65.2005 13.1321 65.2005 12.5913C65.2005 12.1549 64.9652 11.8324 63.8826 11.5952L62.0939 11.2061C59.8063 10.7033 58.8366 9.6408 58.8366 7.70543C58.8366 5.73208 60.4559 4.13818 63.4966 4.13818C66.7256 4.13818 68.0247 6.09251 68.1565 7.37337L65.417 7.98052C65.2852 7.30692 64.7958 6.56697 63.4307 6.56697C62.5646 6.56697 61.9245 6.95588 61.9245 7.52516C61.9245 7.99951 62.2445 8.26511 62.8094 8.39791L65.417 9.00517C67.4034 9.46053 68.326 10.656 68.326 12.3541C68.326 14.1757 66.8856 16.0921 63.5813 16.0921C59.9476 16.0827 58.7614 13.8911 58.6389 12.6293Z" fill="#0EE06E"/>
<path d="M74.3324 15.8638C72.3085 15.8638 70.9529 14.7348 70.9529 12.4959V7.10717H69.0325V4.34635H70.9529V1.7848L74.0783 0.874023V4.34635H76.3847V7.10717H74.0783V11.9266C74.0783 12.771 74.5114 13.103 75.3492 13.103H76.5541V15.8638H74.3324Z" fill="#0EE06E"/>
<path d="M78.2484 15.8624V0.00927734H81.3739V15.8719H78.2484V15.8624Z" fill="#0EE06E"/>
<path d="M90.7974 4.35547H94.1393L89.3758 19.9999H86.0339L87.3518 15.8729H85.629L82.4847 4.35547H85.8267L88.1802 13.264L90.7974 4.35547Z" fill="#0EE06E"/>
<path d="M0 6.95397H7.33353V1.05288L13.189 6.95397L7.33353 12.8455V15.8624H14.4411V6.95397H20.965V0.00927734H0V6.95397Z" fill="#0EE06E"/>
</svg>
