<svg width="58" height="21" viewBox="0 0 58 21" fill="none" xmlns="http://www.w3.org/2000/svg">
<path d="M24.7709 19.8198H20.1403L23.0366 0.459229H27.6669L24.7709 19.8198Z" fill="#00579F"/>
<path d="M41.5576 0.932401C40.6442 0.540676 39.1956 0.108154 37.4043 0.108154C32.8315 0.108154 29.6113 2.74434 29.5915 6.5133C29.5535 9.29403 31.8971 10.8385 33.6499 11.7657C35.4413 12.7131 36.0503 13.3315 36.0503 14.176C36.0321 15.4731 34.6027 16.0709 33.2695 16.0709C31.4208 16.0709 30.4302 15.7627 28.9248 15.0411L28.3151 14.7318L27.6671 19.0778C28.7532 19.6127 30.7541 20.0873 32.8315 20.1082C37.6902 20.1082 40.8533 17.5127 40.8908 13.4963C40.9093 11.2924 39.6718 9.60364 37.0039 8.22368C35.3844 7.33782 34.3925 6.74051 34.3925 5.83413C34.4115 5.01014 35.2314 4.16619 37.0597 4.16619C38.5651 4.12485 39.6711 4.51604 40.509 4.9075L40.9278 5.11309L41.5576 0.93241L41.5576 0.932401Z" fill="#00579F"/>
<path fill-rule="evenodd" clip-rule="evenodd" d="M47.7114 12.961C48.0928 11.8487 49.5602 7.54407 49.5602 7.54407C49.541 7.58541 49.9408 6.4113 50.1694 5.69052L50.4931 7.35874C50.4931 7.35874 51.3699 11.993 51.5603 12.961C50.8366 12.961 48.6261 12.961 47.7114 12.961ZM53.4271 0.459229H49.8453C48.7408 0.459229 47.9017 0.809091 47.4251 2.06559L40.547 19.8195H45.4057C45.4057 19.8195 46.2057 17.4299 46.3775 16.9153C46.9106 16.9153 51.6371 16.9153 52.3228 16.9153C52.4557 17.595 52.8754 19.8195 52.8754 19.8195H57.1628L53.4271 0.459229Z" fill="#00579F"/>
<path d="M16.2722 0.459229L11.7374 13.6613L11.2418 10.9837C10.4034 7.89423 7.77401 4.53752 4.83972 2.86849L8.99349 19.7992H13.8902L21.1686 0.459237H16.2722L16.2722 0.459229Z" fill="#00579F"/>
<path d="M7.52636 0.459229H0.0762169L0 0.85042C5.81157 2.45704 9.66046 6.32976 11.2418 10.9846L9.62222 2.08667C9.35559 0.850149 8.53617 0.500024 7.52636 0.459229Z" fill="#FAA61A"/>
</svg>
