<svg width="366" height="120" viewBox="0 0 366 120" fill="none" xmlns="http://www.w3.org/2000/svg">
<rect x="0.5" y="0.5" width="365" height="119" rx="5.5" fill="#18331F" stroke="#30663F"/>
<rect x="0.5" y="0.5" width="365" height="119" rx="5.5" fill="#233200" stroke="#74902C"/>
<mask id="mask0_1_7207" style="mask-type:alpha" maskUnits="userSpaceOnUse" x="0" y="0" width="366" height="120">
<rect x="0.5" y="0.5" width="365" height="119" rx="5.5" fill="#18331F" stroke="#30663F"/>
</mask>
<g mask="url(#mask0_1_7207)">
<path opacity="0.05" d="M102.095 94.9282L57.9992 83.1127C47.975 80.4267 37.2869 81.8606 28.2862 87.099C19.2854 92.3373 12.7094 100.951 10.0047 111.045C7.29999 121.139 8.68817 131.887 13.8639 140.924C19.0395 149.961 27.5788 156.547 37.603 159.232L81.6988 171.048L78.2994 183.735C77.8487 185.417 76.7526 186.853 75.2525 187.726C73.7524 188.599 71.971 188.838 70.3003 188.39L-43.0889 158.007C-44.7596 157.56 -46.1828 156.462 -47.0454 154.956C-47.908 153.45 -48.1394 151.659 -47.6886 149.976L-20.4936 48.4831C-20.0428 46.8008 -18.9468 45.3652 -17.4467 44.4921C-15.9466 43.6191 -14.1652 43.3801 -12.4945 43.8278L100.895 74.2103C102.565 74.658 103.989 75.7556 104.851 77.2618C105.714 78.7679 105.945 80.5592 105.494 82.2415L102.095 94.9282ZM54.5998 95.7994L104.995 109.303L91.3976 160.049L41.0024 146.546C34.3195 144.755 28.6267 140.365 25.1763 134.34C21.7258 128.315 20.8004 121.15 22.6035 114.421C24.4066 107.692 28.7907 101.949 34.7911 98.4569C40.7916 94.9646 47.917 94.0087 54.5998 95.7994ZM49.5008 114.829L46.1014 127.516L64.9996 132.58L68.399 119.893L49.5008 114.829Z" fill="#D6FF6F"/>
<g filter="url(#filter0_f_1_7207)">
<circle cx="183.5" cy="233.5" r="97.5" fill="#D6FF6F"/>
</g>
</g>
<defs>
<filter id="filter0_f_1_7207" x="-114" y="-64" width="595" height="595" filterUnits="userSpaceOnUse" color-interpolation-filters="sRGB">
<feFlood flood-opacity="0" result="BackgroundImageFix"/>
<feBlend mode="normal" in="SourceGraphic" in2="BackgroundImageFix" result="shape"/>
<feGaussianBlur stdDeviation="100" result="effect1_foregroundBlur_1_7207"/>
</filter>
</defs>
</svg>
