<svg width="18" height="18" viewBox="0 0 18 18" fill="none" xmlns="http://www.w3.org/2000/svg">
<g clip-path="url(#clip0_2014_342)">
<path d="M9.00303 1.5C5.06553 1.5 1.83603 4.5375 1.53003 8.39775L5.55003 10.0598C5.89053 9.82725 6.30153 9.69075 6.74478 9.69075C6.78453 9.69075 6.82278 9.693 6.86253 9.6945L8.65053 7.1055V7.06875C8.65053 5.50875 9.91803 4.24125 11.478 4.24125C13.0373 4.24125 14.3055 5.51025 14.3055 7.07025C14.3055 8.63025 13.0365 9.8985 11.478 9.8985H11.4128L8.86503 11.718C8.86503 11.7502 8.86728 11.784 8.86728 11.8177C8.86728 12.9893 7.92078 13.9402 6.74853 13.9402C5.72703 13.9402 4.86378 13.2067 4.66728 12.2355L1.78878 11.0438C2.67978 14.1915 5.57028 16.5 9.00378 16.5C13.1453 16.5 16.5023 13.1422 16.5023 9C16.5023 4.8585 13.1445 1.5 9.00303 1.5ZM5.30853 12.5002C5.47203 12.8392 5.75478 13.1243 6.12903 13.281C6.93978 13.6185 7.87503 13.2337 8.21178 12.4222C8.37678 12.0285 8.37678 11.5972 8.21478 11.2035C8.05353 10.8097 7.74603 10.503 7.35453 10.3395C6.96453 10.1768 6.54828 10.1835 6.18078 10.3207L7.13253 10.7145C7.73028 10.9643 8.01303 11.652 7.76253 12.249C7.51503 12.8468 6.82728 13.1302 6.22953 12.8812L5.30853 12.5002V12.5002ZM13.3635 7.0665C13.3635 6.02775 12.5175 5.1825 11.4788 5.1825C10.4385 5.1825 9.59478 6.02775 9.59478 7.0665C9.59478 8.1075 10.4385 8.95125 11.4788 8.95125C12.5183 8.95125 13.3628 8.1075 13.3628 7.0665H13.3635ZM11.4825 5.6475C12.2625 5.6475 12.8985 6.28125 12.8985 7.0635C12.8985 7.84575 12.2633 8.4795 11.4825 8.4795C10.6995 8.4795 10.0665 7.84575 10.0665 7.0635C10.0665 6.28125 10.7003 5.6475 11.4825 5.6475V5.6475Z" fill="#332918"/>
</g>
<defs>
<clipPath id="clip0_2014_342">
<rect width="18" height="18" fill="white"/>
</clipPath>
</defs>
</svg>
