<svg width="38" height="38" viewBox="0 0 38 38" fill="none" xmlns="http://www.w3.org/2000/svg">
<rect x="0.36792" width="37.5786" height="37.5786" rx="2" fill="#1F1F27"/>
<path d="M25.2983 13.837C25.1055 13.5279 24.8228 13.2845 24.4868 13.1436C23.6937 12.8111 22.8639 12.551 22.0057 12.3708C21.7193 12.3106 21.4307 12.4476 21.3032 12.711C21.1659 12.9945 20.8627 13.1669 20.5495 13.1327C19.6166 13.0306 18.69 13.0302 17.7696 13.1314C17.4548 13.166 17.1496 12.9934 17.0099 12.7092C16.8809 12.4468 16.5921 12.3105 16.3059 12.3706C15.4478 12.5508 14.6182 12.8112 13.8256 13.144C13.4869 13.2862 13.2024 13.5332 13.0094 13.8457C11.2507 16.6926 10.6507 19.4799 10.7594 22.2307C10.7817 22.7961 11.0733 23.317 11.5458 23.6283C12.5201 24.2705 13.4756 24.733 14.4187 25.0769C14.8075 25.2187 15.2421 25.0754 15.4632 24.7255C15.532 24.6166 15.5988 24.5064 15.6638 24.3948C15.8467 24.0804 15.6902 23.6865 15.3611 23.5317C15.1782 23.4456 14.9987 23.3535 14.8228 23.2558C14.6919 23.1831 14.6831 23 14.7993 22.9056C14.863 22.8539 14.9503 22.8426 15.025 22.8765C17.7174 24.0956 20.6283 24.0959 23.2897 22.8772C23.3645 22.8429 23.4528 22.8542 23.5168 22.9059C23.6334 23.0002 23.6237 23.1829 23.4926 23.2557C23.3169 23.3535 23.1375 23.4454 22.955 23.5314C22.6239 23.6872 22.4666 24.0836 22.6505 24.3998C22.7149 24.5106 22.7813 24.6201 22.8495 24.7282C23.0701 25.0776 23.504 25.2203 23.8923 25.0789C24.8375 24.7346 25.795 24.2715 26.7711 23.6275C27.2423 23.3166 27.5335 22.7966 27.5557 22.2324C27.6791 19.1014 26.8539 16.3306 25.2983 13.837ZM16.3632 21.1554C15.5324 21.1554 14.851 20.3797 14.851 19.4352C14.851 18.4906 15.5178 17.7137 16.3632 17.7137C17.2086 17.7137 17.89 18.4893 17.8754 19.4352C17.8767 20.3797 17.2086 21.1554 16.3632 21.1554ZM21.9516 21.1554C21.1208 21.1554 20.4394 20.3797 20.4394 19.4352C20.4394 18.4906 21.1062 17.7137 21.9516 17.7137C22.797 17.7137 23.4784 18.4893 23.4638 19.4352C23.4638 20.3797 22.797 21.1554 21.9516 21.1554Z" fill="#B8BCD0"/>
</svg>
