<svg width="39" height="38" viewBox="0 0 39 38" fill="none" xmlns="http://www.w3.org/2000/svg">
<rect x="0.789307" width="37.5786" height="37.5786" rx="2" fill="#1F1F27"/>
<path d="M19.7848 11C15.3689 11 11.7893 14.5796 11.7893 18.9955C11.7893 22.1662 13.6353 24.9059 16.3114 26.1989C17.4174 26.7333 18.5359 25.7838 18.5359 24.5555V22.3216C18.5359 21.7608 18.0813 21.3061 17.5204 21.3061C16.9596 21.3061 16.505 20.8515 16.505 20.2907V20.0109C16.505 19.4501 16.9596 18.9955 17.5204 18.9955C18.0813 18.9955 18.5359 18.5408 18.5359 17.98V17.2341C18.5359 15.2304 19.7288 14.1238 21.5558 14.1238C21.8635 14.1238 22.1762 14.1431 22.4522 14.1681C22.97 14.2151 23.3451 14.66 23.3451 15.18V15.2392C23.3451 15.7956 22.8941 16.2466 22.3377 16.2466C21.3439 16.2466 21.0344 16.8631 21.0344 17.4955V17.9714C21.0344 18.5369 21.493 18.9955 22.0585 18.9955C22.686 18.9955 23.1659 19.5545 23.0708 20.1747L23.0278 20.4556C22.9528 20.9449 22.5319 21.3061 22.0369 21.3061C21.4833 21.3061 21.0344 21.755 21.0344 22.3086V24.5559C21.0344 25.7841 22.1527 26.7335 23.2585 26.1991C25.9342 24.9061 27.7802 22.1656 27.7802 18.9955C27.7802 14.5796 24.2007 11 19.7848 11Z" fill="#B8BCD0"/>
</svg>
