<svg width="39" height="38" viewBox="0 0 39 38" fill="none" xmlns="http://www.w3.org/2000/svg">
<rect x="0.710693" y="0.210693" width="37.5786" height="37.5786" rx="2" fill="#1F1F27"/>
<path d="M19.8998 10.6047C22.0721 10.6047 22.3432 10.6127 23.1955 10.6527C24.047 10.6927 24.6267 10.8262 25.1368 11.0245C25.6645 11.2276 26.109 11.5026 26.5536 11.9464C26.9601 12.3461 27.2747 12.8295 27.4754 13.3632C27.6729 13.8725 27.8073 14.4529 27.8472 15.3045C27.8848 16.1568 27.8952 16.4278 27.8952 18.6002C27.8952 20.7726 27.8872 21.0436 27.8472 21.8959C27.8073 22.7474 27.6729 23.3271 27.4754 23.8372C27.2753 24.3711 26.9606 24.8547 26.5536 25.254C26.1538 25.6604 25.6703 25.975 25.1368 26.1759C24.6275 26.3734 24.047 26.5077 23.1955 26.5477C22.3432 26.5853 22.0721 26.5956 19.8998 26.5956C17.7274 26.5956 17.4563 26.5876 16.604 26.5477C15.7525 26.5077 15.1728 26.3734 14.6627 26.1759C14.1289 25.9756 13.6453 25.6609 13.2459 25.254C12.8393 24.8544 12.5247 24.3709 12.3241 23.8372C12.1258 23.3279 11.9922 22.7474 11.9523 21.8959C11.9147 21.0436 11.9043 20.7726 11.9043 18.6002C11.9043 16.4278 11.9123 16.1568 11.9523 15.3045C11.9922 14.4521 12.1258 13.8733 12.3241 13.3632C12.5241 12.8292 12.8388 12.3456 13.2459 11.9464C13.6454 11.5396 14.129 11.225 14.6627 11.0245C15.1728 10.8262 15.7517 10.6927 16.604 10.6527C17.4563 10.6151 17.7274 10.6047 19.8998 10.6047ZM19.8998 14.6025C18.8395 14.6025 17.8227 15.0237 17.0729 15.7734C16.3232 16.5231 15.902 17.5399 15.902 18.6002C15.902 19.6605 16.3232 20.6773 17.0729 21.427C17.8227 22.1767 18.8395 22.5979 19.8998 22.5979C20.96 22.5979 21.9769 22.1767 22.7266 21.427C23.4763 20.6773 23.8975 19.6605 23.8975 18.6002C23.8975 17.5399 23.4763 16.5231 22.7266 15.7734C21.9769 15.0237 20.96 14.6025 19.8998 14.6025ZM25.0968 14.4026C25.0968 14.1375 24.9915 13.8833 24.8041 13.6959C24.6166 13.5084 24.3624 13.4031 24.0974 13.4031C23.8323 13.4031 23.5781 13.5084 23.3907 13.6959C23.2032 13.8833 23.0979 14.1375 23.0979 14.4026C23.0979 14.6676 23.2032 14.9219 23.3907 15.1093C23.5781 15.2967 23.8323 15.402 24.0974 15.402C24.3624 15.402 24.6166 15.2967 24.8041 15.1093C24.9915 14.9219 25.0968 14.6676 25.0968 14.4026ZM19.8998 16.2016C20.5359 16.2016 21.146 16.4543 21.5958 16.9041C22.0457 17.3539 22.2984 17.964 22.2984 18.6002C22.2984 19.2363 22.0457 19.8465 21.5958 20.2963C21.146 20.7461 20.5359 20.9988 19.8998 20.9988C19.2636 20.9988 18.6535 20.7461 18.2037 20.2963C17.7538 19.8465 17.5011 19.2363 17.5011 18.6002C17.5011 17.964 17.7538 17.3539 18.2037 16.9041C18.6535 16.4543 19.2636 16.2016 19.8998 16.2016Z" fill="#B8BCD0"/>
</svg>
