<svg width="20" height="20" viewBox="0 0 20 20" fill="none" xmlns="http://www.w3.org/2000/svg">
<path d="M7.92322 11.9444H9.611C10.5393 11.9444 11.4295 12.3132 12.0859 12.9696C12.7423 13.6259 13.111 14.5162 13.111 15.4444H7.66578L7.66656 16.2222H13.8888V15.4444C13.8863 14.6169 13.6472 13.8072 13.1997 13.1111H15.4443C16.1795 13.1109 16.8997 13.3191 17.5214 13.7116C18.1431 14.1041 18.6408 14.6647 18.9568 15.3286C17.1173 17.756 14.1392 19.3333 10.7777 19.3333C8.63023 19.3333 6.811 18.8744 5.33322 18.0694V10.833C6.27948 10.9685 7.17304 11.352 7.92322 11.9444ZM4.55545 17.7778C4.55545 17.9841 4.4735 18.1819 4.32764 18.3278C4.18178 18.4736 3.98395 18.5556 3.77767 18.5556H2.22211C2.01583 18.5556 1.818 18.4736 1.67214 18.3278C1.52628 18.1819 1.44434 17.9841 1.44434 17.7778V10.7778C1.44434 10.5715 1.52628 10.3737 1.67214 10.2278C1.818 10.0819 2.01583 10 2.22211 10H3.77767C3.98395 10 4.18178 10.0819 4.32764 10.2278C4.4735 10.3737 4.55545 10.5715 4.55545 10.7778V17.7778Z" fill="#C0A3F5"/>
<path d="M11.9444 1.44712C12.4038 1.44696 12.8557 1.56303 13.2582 1.7845C13.6606 2.00598 14.0004 2.32567 14.246 2.71379C14.4916 3.10191 14.6349 3.54584 14.6626 4.00424C14.6903 4.46264 14.6015 4.92059 14.4045 5.33546L16.9999 5.33468C17.2062 5.33468 17.4041 5.41659 17.5499 5.56241C17.6958 5.70822 17.7777 5.90598 17.7777 6.11219V8.44473C17.7777 8.65093 17.6958 8.8487 17.5499 8.99451C17.4041 9.14032 17.2062 9.22224 16.9999 9.22224H2.99995C2.79367 9.22224 2.59584 9.14032 2.44997 8.99451C2.30411 8.8487 2.22217 8.65093 2.22217 8.44473V6.11219C2.22217 5.90598 2.30411 5.70822 2.44997 5.56241C2.59584 5.41659 2.79367 5.33468 2.99995 5.33468L5.59539 5.33546C5.31831 4.75362 5.25677 4.09237 5.42171 3.46943C5.58666 2.84648 5.96739 2.30226 6.49613 1.93365C7.02488 1.56504 7.66731 1.39595 8.30908 1.4565C8.95085 1.51705 9.5503 1.80329 10.0007 2.26428C10.2535 2.005 10.5558 1.79908 10.8897 1.65872C11.2235 1.51835 11.5822 1.4464 11.9444 1.44712ZM8.0555 3.00214C7.75589 3.00229 7.46782 3.11766 7.25098 3.32435C7.03414 3.53104 6.90516 3.8132 6.89076 4.11236C6.87636 4.41153 6.97765 4.70476 7.17364 4.93131C7.36963 5.15785 7.64529 5.30033 7.9435 5.32924L8.0555 5.33468H9.22217V4.16841C9.22215 3.87849 9.11412 3.59897 8.91913 3.38435C8.72414 3.16974 8.45618 3.03542 8.1675 3.00758L8.0555 3.00214ZM11.9444 3.00214L11.8324 3.00758C11.5628 3.03341 11.3106 3.15219 11.119 3.34356C10.9274 3.53493 10.8084 3.78696 10.7824 4.05645L10.7777 4.16841V5.33468H11.9444L12.0564 5.32924C12.345 5.30127 12.6128 5.16689 12.8077 4.95229C13.0025 4.73769 13.1105 4.45824 13.1105 4.16841C13.1105 3.87858 13.0025 3.59913 12.8077 3.38453C12.6128 3.16993 12.345 3.03555 12.0564 3.00758L11.9444 3.00214Z" fill="#C0A3F5"/>
</svg>
