<svg width="39" height="38" viewBox="0 0 39 38" fill="none" xmlns="http://www.w3.org/2000/svg">
<rect x="0.946533" width="37.5786" height="37.5786" rx="2" fill="#1F1F27"/>
<path fill-rule="evenodd" clip-rule="evenodd" d="M27.2185 12.7738C27.2127 11.6743 26.3195 10.7891 25.2201 10.7891H14.6842C13.8561 10.7891 13.1136 11.2994 12.817 12.0726L12.3683 13.2416C12.2806 13.4703 12.2356 13.7132 12.2356 13.9582V22.8776C12.2356 23.8891 13.0556 24.7091 14.067 24.7091H14.8585C15.4329 24.7091 15.8985 25.1747 15.8985 25.7491C15.8985 26.3234 16.3641 26.7891 16.9385 26.7891H17.421C17.8334 26.7891 18.2282 26.6218 18.515 26.3255L19.4903 25.318C19.867 24.9288 20.3856 24.7091 20.9273 24.7091H22.2777C22.8147 24.7091 23.3277 24.4945 23.7043 24.1118C24.8239 22.9738 27.1582 20.6072 27.207 20.6072C27.2527 20.6072 27.2334 15.6424 27.2185 12.7738ZM25.8476 19.0633C25.8476 19.579 25.6484 20.0748 25.2915 20.4471L24.1779 21.6091C23.7913 22.0126 23.2534 22.2357 22.6946 22.2272C21.5749 22.2103 19.7743 22.1911 19.7242 22.2422L18.7216 23.2597C18.3463 23.6407 17.6978 23.3749 17.6978 22.8401C17.6978 22.5099 17.4301 22.2422 17.0999 22.2422H16.1712C15.3281 22.2422 14.6447 21.5587 14.6447 20.7156V14.2276C14.6447 13.123 15.5401 12.2276 16.6447 12.2276H23.8476C24.9521 12.2276 25.8476 13.123 25.8476 14.2276V19.0633Z" fill="#B8BCD0"/>
<rect x="18.717" y="13.7734" width="1.70115" height="5.05969" rx="0.850574" fill="#B8BCD0"/>
<rect x="23.2854" y="13.7734" width="1.70115" height="5.05969" rx="0.850574" fill="#B8BCD0"/>
</svg>
