<svg width="39" height="38" viewBox="0 0 39 38" fill="none" xmlns="http://www.w3.org/2000/svg">
<rect x="0.63208" width="37.5786" height="37.5786" rx="2" fill="#1F1F27"/>
<path fill-rule="evenodd" clip-rule="evenodd" d="M16.2741 20.8265C16.8849 20.1015 16.9028 19.0472 16.317 18.3019L13.1757 14.3055C12.1442 12.9933 13.079 11.0696 14.7481 11.0696H14.9591C15.5731 11.0696 16.1531 11.3516 16.5323 11.8346L18.5435 14.3965C19.3267 15.3942 20.8289 15.4202 21.6462 14.4501L24.1397 11.4905C24.3519 11.2386 24.6644 11.0933 24.9937 11.0933C25.9431 11.0933 26.4595 12.2027 25.8482 12.9291L22.5199 16.8843C21.9101 17.609 21.8922 18.662 22.477 19.407L25.9529 23.8346C26.9832 25.147 26.0482 27.0696 24.3798 27.0696H24.1806C23.567 27.0696 22.9874 26.7879 22.6082 26.3055L20.2561 23.3132C19.4723 22.316 17.9701 22.291 17.1534 23.2614L14.2984 26.6542C14.0852 26.9076 13.771 27.0538 13.4399 27.0538C12.4858 27.0538 11.9672 25.9386 12.5819 25.2089L16.2741 20.8265ZM24.221 25.4924C24.0681 25.4924 23.9238 25.4223 23.8293 25.3021L14.5211 13.4603C14.2618 13.1304 14.4968 12.6467 14.9164 12.6467C15.0708 12.6467 15.2166 12.7176 15.3119 12.839L24.6129 24.6866C24.8695 25.0135 24.6366 25.4924 24.221 25.4924Z" fill="#B8BCD0"/>
</svg>
