<svg width="20" height="20" viewBox="0 0 20 20" fill="none" xmlns="http://www.w3.org/2000/svg">
<g clip-path="url(#clip0_2011_637)">
<path d="M17.7777 6.88889H10.7777C10.5714 6.88889 10.3736 6.97083 10.2278 7.11669C10.0819 7.26256 9.99995 7.46039 9.99995 7.66667V12.3333C9.99995 12.5396 10.0819 12.7374 10.2278 12.8833C10.3736 13.0292 10.5714 13.1111 10.7777 13.1111H17.7777V16.2222C17.7777 16.4285 17.6958 16.6263 17.5499 16.7722C17.4041 16.9181 17.2062 17 16.9999 17H2.99995C2.79367 17 2.59584 16.9181 2.44997 16.7722C2.30411 16.6263 2.22217 16.4285 2.22217 16.2222V3.77778C2.22217 3.5715 2.30411 3.37367 2.44997 3.22781C2.59584 3.08194 2.79367 3 2.99995 3H16.9999C17.2062 3 17.4041 3.08194 17.5499 3.22781C17.6958 3.37367 17.7777 3.5715 17.7777 3.77778V6.88889ZM12.3333 9.22222H14.6666V10.7778H12.3333V9.22222Z" fill="#D6FF6F"/>
</g>
<defs>
<clipPath id="clip0_2011_637">
<rect width="18.6667" height="18.6667" fill="white" transform="translate(0.666504 0.666687)"/>
</clipPath>
</defs>
</svg>
