<svg width="38" height="38" viewBox="0 0 38 38" fill="none" xmlns="http://www.w3.org/2000/svg">
<rect x="0.0534668" width="37.5786" height="37.5786" rx="2" fill="#1F1F27"/>
<g clip-path="url(#clip0_1_7373)">
<path d="M26.3488 14.1649C26.7297 15.6499 26.7297 18.7499 26.7297 18.7499C26.7297 18.7499 26.7297 21.8499 26.3488 23.3349C26.1372 24.1558 25.518 24.8016 24.7338 25.0199C23.3097 25.4166 18.3963 25.4166 18.3963 25.4166C18.3963 25.4166 13.4855 25.4166 12.0588 25.0199C11.2713 24.7983 10.653 24.1533 10.4438 23.3349C10.063 21.8499 10.063 18.7499 10.063 18.7499C10.063 18.7499 10.063 15.6499 10.4438 14.1649C10.6555 13.3441 11.2747 12.6983 12.0588 12.4799C13.4855 12.0833 18.3963 12.0833 18.3963 12.0833C18.3963 12.0833 23.3097 12.0833 24.7338 12.4799C25.5213 12.7016 26.1397 13.3466 26.3488 14.1649ZM16.7297 21.6666L21.7297 18.7499L16.7297 15.8333V21.6666Z" fill="#B8BCD0"/>
</g>
<defs>
<clipPath id="clip0_1_7373">
<rect width="20" height="20" fill="white" transform="translate(8.39624 8.75)"/>
</clipPath>
</defs>
</svg>
